PathFileType	4	(X/Y/Z)	C:/Users/beibeiliu/ov580/test_trc/User3\sequence.37_training_dense_right.trc
DataRate	CameraRate	NumFrames	NumMarkers	Units	OrigDataRate	OrigDataStartFrame	OrigNumFrames
120	120	22	19	mm	120	103	274
Frame#	Time	ThumbCMC			ThumbMCP			ThumbIP			ThumbTip			IndexMCP			IndexPIP			IndexTip			MiddleMCP			MiddlePIP			MiddleTip			RingMCP			RingPIP			RingTip			PinkyMCP			PinkyPIP			PinkyTip			BackHand1			BackHand2			BackHand3	
		X0	Y0	Z0	X1	Y1	Z1	X2	Y2	Z2	X3	Y3	Z3	X4	Y4	Z4	X5	Y5	Z5	X6	Y6	Z6	X7	Y7	Z7	X8	Y8	Z8	X9	Y9	Z9	X10	Y10	Z10	X11	Y11	Z11	X12	Y12	Z12	X13	Y13	Z13	X14	Y14	Z14	X15	Y15	Z15	X16	Y16	Z16	X17	Y17	Z17	X18	Y18	Z18	
102	0.85	100.618	56.8422	-31.3576	86.9265	64.0849	-58.9888	75.9179	58.2806	-90.1295	68.9352	34.9359	-96.6407	107.813	33.1423	-104.025	85.8038	25.6373	-127.789	56.0503	29.8119	-111.024	102.472	12.8389	-108.574	69.4055	9.14162	-118.317	58.3697	17.0575	-79.0078	97.8945	-3.44635	-96.1106	67.3908	-5.04987	-101.726	62.1517	7.6675	-70.3547	95.6864	-16.5495	-83.1569	69.4099	-16.0523	-86.4961	64.6256	-6.66448	-58.4759	128.45	5.99042	-53.265	134.623	6.54299	-18.955	129.564	36.1676	-40.5082	
103	0.858333	110.388	65.1643	-34.6004	101.8	70.5408	-64.4205	96.1708	66.5284	-94.3016	90.9348	42.0708	-110.665	133.455	37.9047	-108.273	115.027	37.8267	-136.231	84.1762	43.9434	-126.175	128.292	19.1447	-112.732	99.9909	22.0247	-131.701	77.3258	29.1309	-101.546	121.247	5.80746	-106.2	94.5081	2.8013	-117.291	77.707	12.601	-89.4404	115.533	-11.682	-92.3093	92.6311	-7.93577	-104.516	74.2375	1.6257	-80.9838	141.216	7.75502	-52.4715	140.295	10.322	-20.4886	140.945	44.2946	-39.4571	
104	0.866667	114.829	63.8263	-34.5095	106.554	76.8354	-67.5403	101.742	69.215	-96.3046	96.1996	48.9981	-109.92	143.37	48.1444	-106.772	125.996	44.6845	-137.64	94.994	44.8211	-128.625	138.685	28.8078	-115.931	111.471	24.4571	-133.748	84.498	29.4069	-105.963	130.375	8.6511	-106.183	101.817	10.1966	-120.436	84.1415	14.8762	-91.5031	125.382	-6.86602	-90.7086	101.127	-5.15913	-106.975	79.7766	8.09752	-84.7687	148.055	12.5589	-48.5904	143.58	11.8157	-18.8016	144.605	42.9669	-37.5253	
105	0.875	115.644	66.6102	-33.1558	102.475	76.776	-63.5539	94.8225	71.5974	-94.8023	91.3958	46.5009	-107.07	138.535	49.4217	-107.658	120.113	46.9524	-133.535	89.8627	47.3903	-125.481	133.528	29.6938	-112.955	107.793	26.6936	-130.159	80.2221	30.7464	-99.9602	126.139	13.1927	-106.075	96.8542	12.2419	-115.116	80.0555	17.4182	-89.4816	123.508	-4.58148	-89.2138	96.548	-0.804432	-102.009	78.7834	6.49717	-80.7981	148.436	15.2068	-50.892	147.521	16.7067	-19.2652	145.138	48.7999	-39.3053	
106	0.883333	111.684	70.1393	-27.3854	96.2604	76.872	-56.2827	86.6811	69.2017	-86.9809	81.3846	46.4394	-96.5355	126.778	46.7622	-103.664	107.323	43.5568	-126.692	74.6328	43.6358	-114.534	122.205	27.0488	-109.162	91.6846	24.4258	-121.135	70.8011	27.5823	-84.9737	117.624	12.362	-100.082	88.7046	9.00637	-105.972	73.6681	16.4942	-78.5324	116.922	-7.54047	-82.206	86.9199	-6.34194	-90.6879	73.1272	0.291444	-68.4865	147.836	12.2156	-48.5778	148.255	13.2731	-15.8283	143.709	48.3359	-37.6266	
107	0.891667	106.302	67.2714	-21.2024	88.9677	68.9511	-49.1112	75.758	62.4708	-78.0153	69.9142	38.8533	-88.3012	114.1	46.8971	-99.118	86.6322	43.5794	-120.099	58.4609	39.6386	-99.8356	108.474	26.3583	-104.716	77.2307	22.2088	-110.024	61.6163	19.5034	-75.7672	106.341	8.93645	-91.561	74.8103	0.696522	-90.891	66.6617	11.7515	-63.2429	106.733	-10.8237	-77.5741	80.5991	-10.9924	-81.2842	66.9238	1.62899	-54.9772	141.993	12.0185	-45.316	146.904	16.7768	-16.9689	138.55	48.1612	-32.9088	
108	0.9	101.28	62.0659	-16.3696	77.6473	66.7333	-44.2415	59.2348	58.7183	-67.8213	57.5618	30.2889	-75.2582	99.3585	39.9984	-92.2552	67.9033	32.1548	-109.212	43.646	31.6788	-86.6686	96.7806	21.6294	-92.8812	63.6737	9.85259	-97.8392	51.2264	15.8906	-60.6356	91.9492	1.25787	-84.0527	63.5894	-6.7906	-76.6569	60.5012	4.77816	-43.8231	95.1809	-15.3349	-69.6287	70.94	-15.3719	-67.0261	61.3382	-4.52624	-37.7478	135.203	10.0191	-41.0461	143.876	18.713	-14.8405	133.45	47.0917	-32.113	
109	0.908333	95.8176	61.4686	-13.2291	70.4379	60.8409	-33.5175	48.2629	47.6444	-57.2138	46.0598	20.6294	-61.6868	85.479	33.2294	-84.4971	56.462	22.4384	-97.8708	30.7388	20.4417	-71.9088	80.3213	7.67886	-86.1641	48.8728	4.6786	-83.0793	43.4921	6.59083	-44.9108	81.9478	-9.41154	-71.3726	55.1477	-15.3557	-62.4286	54.9666	-1.02305	-30.7592	87.739	-19.7828	-58.3511	60.6623	-21.6421	-48.1339	61.3657	-6.25203	-23.0689	128.494	8.05082	-38.3447	142.044	13.6553	-12.5186	125.246	42.4343	-28.2944	
110	0.916667	91.0432	56.758	-12.2073	61.7313	53.789	-25.8993	38.0149	42.8096	-42.0765	32.9148	11.2653	-48.8413	74.6733	18.9224	-74.452	41.1749	7.97139	-81.9282	21.2054	12.2454	-57.2386	70.2637	2.83574	-74.6678	36.8044	-7.88235	-63.0749	39.4695	1.65951	-26.316	74.0847	-15.8881	-58.487	43.7714	-18.0924	-43.4903	50.4853	-5.04938	-17.7596	79.8393	-28.7863	-45.3187	55.5641	-25.8594	-32.8223	61.743	-11.407	-4.8959	123.411	1.62669	-33.5269	138.357	11.7299	-8.00949	120.473	38.0309	-30.3126	
111	0.925	89.0032	49.1703	-6.30326	58.7735	47.0519	-15.9611	33.1868	35.7061	-28.6827	27.2156	6.12776	-32.4704	64.0604	10.2505	-66.7163	31.2269	-1.85225	-69.0862	15.2664	4.26568	-41.3463	61.0712	-8.97569	-62.8866	29.7939	-14.6046	-51.2725	38.2482	-1.29537	-10.8733	66.3294	-24.7642	-47.0744	40.782	-25.4615	-29.7007	52.252	-7.90534	-2.65963	76.8378	-32.687	-32.53	53.5031	-32.0596	-16.2625	63.6051	-15.5361	5.47317	115.736	-0.132881	-34.1656	137.028	5.89624	-9.52852	117.328	35.3383	-25.7905	
112	0.933333	87.9299	46.4463	-3.88152	57.3792	39.9273	-12.9107	31.6226	28.5645	-20.8066	24.2057	-0.890014	-22.4648	56.846	5.96697	-59.4946	25.7486	-10.1334	-57.6505	12.9232	-4.83379	-32.3576	50.7588	-14.2905	-55.6064	26.4663	-23.4299	-39.9312	34.9385	-4.28097	-3.25581	59.5347	-28.1778	-40.6609	37.6992	-30.7667	-17.3065	54.2348	-11.4184	6.30749	72.9676	-40.1633	-23.5173	52.4857	-37.5791	-2.30582	68.2326	-16.6615	12.6723	114.277	-8.41601	-32.07	135.012	3.17652	-10.1632	111.437	28.5905	-24.8691	
113	0.941667	89.0323	46.5242	-1.99625	55.7702	42.7372	-9.13863	29.4973	24.3191	-20.9807	23.6562	-2.30118	-18.2872	56.3925	-1.33362	-56.0877	24.8366	-11.2265	-55.9834	11.9612	-8.59495	-22.0734	54.263	-22.1496	-49.6658	25.211	-27.7648	-30.1753	33.9977	-10.8204	-0.759417	58.4454	-31.8568	-35.6742	39.3065	-37.9449	-11.6551	54.6403	-13.5987	10.0406	69.1293	-44.6381	-19.2627	51.6978	-36.636	0.696271	69.3194	-21.108	17.1388	111.482	-11.815	-28.8589	134.619	1.99119	-5.92588	112.066	25.83	-22.583	
114	0.95	88.6999	41.3733	-3.04705	59.3557	37.8743	-9.66706	35.7344	21.5969	-18.1091	28.7003	-7.48247	-18.9279	55.2816	-4.43059	-55.4482	24.5228	-16.67	-51.5568	12.9603	-11.9721	-21.5257	53.4837	-27.2795	-49.4788	25.966	-28.6027	-33.5689	34.981	-12.3651	0.507315	59.0385	-35.2957	-34.9654	39.2171	-38.654	-8.78171	53.9276	-20.6973	11.4245	72.5796	-49.1402	-17.7686	53.4507	-41.1646	3.82941	71.2806	-24.6579	18.1845	116.996	-15.1292	-24.8161	133.849	-1.67423	-9.68834	112.867	23.2604	-21.8111	
115	0.958333	91.875	41.0181	0.111708	58.7757	36.8973	-10.2502	34.5589	20.9389	-19.734	31.7156	-8.52766	-18.2936	60.1974	-8.2393	-54.5412	26.2645	-19.4067	-52.7019	13.2723	-10.1066	-22.1071	55.6711	-26.318	-50.7453	27.3316	-33.306	-29.5153	38.7146	-12.2022	2.88019	65.9352	-39.9963	-32.78	40.7575	-40.505	-12.9072	56.7705	-22.2049	10.6735	73.0576	-48.1054	-18.5451	55.3341	-41.5086	1.28213	71.2097	-23.6435	15.4993	117.869	-15.9886	-23.6773	136.297	-3.0715	-5.39595	115.771	17.5653	-24.3977	
116	0.966667	93.5943	35.1922	-1.9818	60.8793	33.2287	-11.5708	34.9363	18.5317	-22.7399	31.1642	-7.43789	-21.7451	62.9261	-8.5935	-56.215	28.0041	-19.7934	-54.9898	17.7445	-15.7057	-23.3998	56.9186	-25.9338	-53.017	31.0935	-34.5541	-32.2533	40.5203	-18.3074	0.419091	64.0554	-39.9221	-35.8518	43.989	-43.5326	-14.2136	57.3992	-24.0704	7.59247	75.3376	-47.7366	-21.9225	57.253	-47.2287	-2.93803	73.1637	-24.3263	12.7935	117.298	-16.7577	-27.5664	141.019	-2.02478	-5.39055	118.695	21.0842	-22.9651	
117	0.975	95.998	34.3896	-1.28423	64.1853	34.9614	-11.8886	43.0208	16.2432	-23.9936	32.5699	-9.99321	-26.9093	63.3825	-6.39828	-61.0831	33.5575	-17.7478	-59.1729	19.3863	-15.1702	-29.4294	61.9666	-25.4197	-54.6584	34.456	-31.7427	-42.1978	40.97	-17.6225	-3.33358	69.2664	-40.8371	-37.8833	47.0659	-42.1545	-18.3324	60.1521	-19.9309	5.56052	77.0403	-50.8031	-23.266	59.2578	-47.6761	-6.03949	75.7728	-25.0026	12.0872	120.495	-15.6543	-27.7378	142.554	-6.85461	-2.80895	118.191	18.0321	-24.6959	
118	0.983333	100.618	37.8763	-1.18021	69.136	31.3906	-15.9248	45.4621	19.5809	-26.036	37.4939	-7.98521	-30.0066	71.3209	-4.42739	-60.131	39.7962	-17.3316	-62.8961	21.6721	-13.1678	-34.6285	68.9288	-23.549	-54.9266	38.0535	-31.1736	-44.2885	43.0492	-19.7253	-5.7208	70.6617	-41.7238	-39.415	49.5219	-41.2332	-16.8915	59.9882	-19.399	3.5705	84.6834	-48.9513	-24.0864	61.9817	-46.6281	-3.78117	74.6539	-27.9947	10.8207	127.323	-17.42	-25.5848	145.385	-8.19695	-2.42363	124.339	16.4672	-25.2444	
119	0.991667	102.441	36.377	-2.02285	72.2101	33.2573	-16.2966	51.0374	18.3886	-27.7656	40.9693	-6.41758	-30.0012	76.073	-3.94164	-60.4733	44.7427	-20.0121	-62.0529	26.4418	-14.9169	-37.1578	70.3446	-25.7489	-57.3065	40.8735	-31.0899	-43.8828	44.466	-20.4686	-8.86387	76.9029	-37.2533	-40.6562	51.9727	-41.0047	-19.43	60.3578	-21.5452	0.762648	88.9739	-51.0818	-23.6228	63.5525	-45.229	-8.1191	75.9204	-27.0271	10.3703	129.119	-15.8643	-23.0518	146.693	-6.31708	-4.60206	125.999	18.8787	-22.787	
120	1	104.97	38.4678	-1.37336	72.7579	33.7943	-18.0093	51.9914	16.8845	-28.1426	43.0133	-6.88304	-29.8687	76.667	-8.97783	-61.2287	46.7635	-18.5529	-63.1778	29.7459	-16.378	-37.6426	71.7574	-23.9044	-57.335	45.175	-32.4531	-45.2794	46.4484	-17.9421	-7.24229	79.8122	-38.2823	-40.0506	54.8115	-43.0481	-22.6812	63.518	-23.6523	2.99663	90.9798	-50.659	-23.1888	66.6249	-48.9302	-10.0754	77.6804	-27.2842	11.4977	129.34	-16.2978	-25.8021	151.308	-3.81806	-1.23109	130.541	18.1594	-23.0929	
121	1.00833	105.863	37.3961	-1.78945	75.9117	34.9193	-11.431	51.9663	15.102	-27.0974	43.09	-8.54016	-27.429	80.2073	-8.4877	-58.3413	45.9075	-18.5974	-60.5287	30.3783	-15.2588	-32.7185	78.1669	-27.746	-53.2803	45.9729	-32.9296	-44.1851	51.3081	-18.7068	-4.1228	82.3898	-42.1492	-38.4474	56.8643	-43.3828	-19.0932	64.813	-20.5414	3.2025	90.2045	-51.0379	-22.6274	67.4144	-47.5188	-9.54665	79.1659	-28.4574	14.0426	132.337	-18.2855	-24.0126	150.986	-8.80855	-0.211334	130.772	13.3449	-21.2149	
122	1.01667	106.486	36.7292	-1.86911	74.9569	33.3336	-11.2292	53.0382	14.5657	-22.8724	47.8214	-12.0694	-23.9905	77.2004	-9.47177	-59.1587	45.5457	-20.8247	-58.0076	31.0558	-15.3957	-34.6058	78.1558	-27.5504	-52.3585	47.9529	-36.0935	-40.6236	50.6872	-18.5427	-3.02572	81.3025	-44.0888	-36.8721	56.3801	-44.445	-17.9081	67.2469	-24.0584	7.07801	88.2883	-49.622	-21.6682	68.9689	-48.8559	-7.05459	83.7252	-29.987	17.0525	134.061	-22.3185	-24.0228	154.895	-9.93739	2.34417	133.665	17.9015	-20.1075	
123	1.025	106.875	35.6326	2.95571	72.5546	29.577	-9.8464	53.664	12.8281	-18.1537	41.3565	-14.7682	-20.8059	77.1892	-10.0356	-56.6092	46.8178	-22.1765	-57.1948	31.3333	-19.2971	-25.018	76.6153	-31.1515	-49.631	46.2671	-36.7111	-35.7172	50.4894	-20.7012	-1.19962	80.2403	-45.3344	-36.1004	56.9668	-46.0153	-16.0813	66.8972	-28.1841	8.35051	93.5848	-55.0335	-18.5028	70.5196	-50.7834	1.20094	82.6217	-31.7373	20.5241	135.203	-22.8275	-21.1476	155.355	-8.77659	1.03783	131.819	16.0702	-17.598	
